<svg width="120" height="120" viewBox="0 0 120 120" fill="none" xmlns="http://www.w3.org/2000/svg">
<g clip-path="url(#clip0_954_2601)">
<path d="M53.7221 63.571C53.4026 64.5116 52.9008 65.38 52.2456 66.1267C51.5904 66.8734 50.7945 67.4836 49.9033 67.9226C49.0122 68.3616 48.0433 68.6207 47.0521 68.6852C46.0608 68.7496 45.0666 68.6181 44.1261 68.2982L5.66127 55.222C3.76198 54.5763 2.19697 53.2025 1.31055 51.4029C0.424131 49.6033 0.288908 47.5252 0.934617 45.6258L14.0111 7.16016C14.6571 5.26116 16.0309 3.69649 17.8303 2.81029C19.6298 1.92408 21.7075 1.78892 23.6065 2.4345L62.0714 15.5107C63.0118 15.8302 63.88 16.3318 64.6266 16.9869C65.3731 17.642 65.9833 18.4378 66.4223 19.3287C66.8613 20.2197 67.1204 21.1884 67.185 22.1796C67.2496 23.1708 67.1183 24.165 66.7986 25.1054L53.7221 63.571Z" fill="#C292C2"/>
<path d="M32.3701 17.9511L29.6211 26.0375L29.6685 26.0414L23.8647 43.114C23.0811 42.3853 22.1515 41.8317 21.1376 41.4899C17.6905 40.3181 14.0866 41.7293 13.0952 44.6456C12.1039 47.5618 14.0988 50.8781 17.5475 52.0505C20.9962 53.2229 24.599 51.8096 25.5904 48.8933L33.2156 26.4631L50.133 28.4661L44.5723 44.8233C43.7886 44.0948 42.859 43.5412 41.8452 43.1992C38.3965 42.0268 34.7942 43.4386 33.8023 46.3564C32.8104 49.2742 34.8028 52.5879 38.2546 53.7614C41.7064 54.9348 45.3061 53.5204 46.2975 50.6041L56.4301 20.7982L32.3701 17.9511Z" fill="#DF76AC" stroke="#662483" stroke-width="1.7627" stroke-linecap="round" stroke-linejoin="round"/>
<g style="mix-blend-mode:multiply">
<path d="M19.415 49.0993C17.0577 48.2952 14.8503 47.1049 12.8831 45.5771C12.5412 48.2384 14.4581 51.0055 17.5459 52.0552C20.4245 53.0338 23.4036 52.2099 24.8902 50.2201C23.0254 50.0773 21.186 49.7008 19.415 49.0993Z" fill="#D47FB3"/>
</g>
<g style="mix-blend-mode:multiply">
<path d="M47.6677 19.7624C48.7078 22.503 49.2075 25.419 49.1393 28.3496L50.1439 28.4698L48.3725 33.6806C48.2482 34.1385 48.1135 34.591 47.9611 35.0393C47.8087 35.4876 47.6386 35.9316 47.4586 36.3688L44.5833 44.827C44.0263 44.3097 43.3938 43.8802 42.7076 43.5533C40.9352 45.3625 38.871 46.8603 36.6014 47.984C35.6676 48.4394 34.7042 48.8314 33.7178 49.1575C34.2239 51.1539 35.9076 52.967 38.2645 53.7682C41.7147 54.9411 45.316 53.5272 46.3074 50.611L56.441 20.802L47.6677 19.7624Z" fill="#DF76AC"/>
</g>
<path d="M119.535 36.4034C120.052 37.9187 119.946 39.5773 119.24 41.0144C118.534 42.4514 117.286 43.5491 115.77 44.066L85.0796 54.5354C84.3294 54.7914 83.536 54.897 82.7449 54.8463C81.9538 54.7956 81.1804 54.5896 80.469 54.24C79.7575 53.8904 79.1219 53.404 78.5984 52.8087C78.075 52.2135 77.6739 51.5209 77.4181 50.7706L66.9486 20.0795C66.4318 18.5645 66.538 16.9062 67.2439 15.4695C67.9497 14.0328 69.1974 12.9353 70.7125 12.4185L101.403 1.94911C102.153 1.69301 102.947 1.58719 103.738 1.63771C104.529 1.68824 105.302 1.89412 106.014 2.24357C106.725 2.59303 107.361 3.07922 107.885 3.6744C108.408 4.26957 108.81 4.96204 109.066 5.7123L119.535 36.4034Z" fill="#92C2BF"/>
<path d="M105.099 11.0164L73.3287 21.8539L81.3833 45.4657L113.153 34.6281L105.099 11.0164Z" fill="#93D5F6" stroke="#662483" stroke-width="1.03377" stroke-linecap="round" stroke-linejoin="round"/>
<path d="M103.416 14.402L76.73 23.5052L82.484 40.3729L109.17 31.2697L103.416 14.402Z" fill="white" stroke="#662483" stroke-width="1.03377" stroke-linecap="round" stroke-linejoin="round"/>
<path d="M93.2842 24.1141C93.5499 24.8939 93.5785 25.735 93.3662 26.5311C93.1539 27.3272 92.7103 28.0424 92.0916 28.5864C91.4728 29.1304 90.7067 29.4788 89.89 29.5874C89.0733 29.696 88.2427 29.56 87.5033 29.1966C86.7638 28.8332 86.1488 28.2587 85.7359 27.5458C85.3229 26.8329 85.1307 26.0135 85.1834 25.1913C85.2361 24.3691 85.5315 23.581 86.0321 22.9267C86.5327 22.2723 87.2161 21.7811 87.9959 21.5151C88.5137 21.3382 89.0614 21.2652 89.6075 21.3001C90.1537 21.335 90.6876 21.4772 91.1787 21.7186C91.6698 21.96 92.1085 22.2958 92.4698 22.7068C92.8311 23.1178 93.1078 23.5961 93.2842 24.1141Z" fill="#FFE393" stroke="#662483" stroke-width="1.03377" stroke-linecap="round" stroke-linejoin="round"/>
<path d="M90.4807 37.645L82.4928 40.3699L84.5658 33.3761L86.6384 26.3811L92.5562 30.6504L98.4712 34.9192L90.4807 37.645Z" fill="#C292C2" stroke="#662483" stroke-width="1.03377" stroke-linecap="round" stroke-linejoin="round"/>
<path d="M101.172 33.998L93.1837 36.7229L95.2567 29.7292L97.3293 22.7342L103.245 27.0043L109.161 31.2727L101.172 33.998Z" fill="#C292C2" stroke="#662483" stroke-width="1.03377" stroke-linecap="round" stroke-linejoin="round"/>
<g style="mix-blend-mode:multiply">
<path d="M99.8755 12.7967C100.482 13.8356 100.982 14.9323 101.371 16.0706C102.438 19.2 102.636 22.5606 101.943 25.7937C101.25 29.0268 99.6921 32.0111 97.4355 34.4279C95.1788 36.8448 92.3083 38.6035 89.1301 39.5164C85.952 40.4293 82.5857 40.4621 79.3904 39.6113L81.3883 45.4682L113.158 34.6306L105.102 11.0138L99.8755 12.7967Z" fill="#C292C2"/>
</g>
<path d="M98.2714 100.69C98.6504 103.071 98.0682 105.505 96.6527 107.456C95.2373 109.408 93.1046 110.717 90.7238 111.096L42.5084 118.772C41.3297 118.959 40.1255 118.913 38.9647 118.635C37.8039 118.357 36.7092 117.854 35.7431 117.153C34.7769 116.452 33.9584 115.568 33.3341 114.55C32.7098 113.533 32.292 112.403 32.1046 111.224L24.4291 63.0104C24.2412 61.8317 24.2873 60.6275 24.5648 59.4666C24.8423 58.3058 25.3458 57.2109 26.0465 56.2447C26.7472 55.2784 27.6314 54.4597 28.6485 53.8351C29.6657 53.2106 30.7959 52.7926 31.9747 52.605L80.1901 44.9291C82.5709 44.5501 85.0047 45.1323 86.9561 46.5478C88.9076 47.9632 90.2168 50.0959 90.5958 52.4766L98.2714 100.69Z" fill="#FDD495"/>
<path d="M82.3705 53.1518L32.4595 61.0976L40.3321 110.548L90.243 102.603L82.3705 53.1518Z" fill="#C292C2" stroke="#662483" stroke-width="2.43262" stroke-linecap="round" stroke-linejoin="round"/>
<g style="mix-blend-mode:multiply">
<path d="M72.8261 54.6713C76.4301 59.801 78.2957 65.9507 78.1493 72.2182C78.0028 78.4858 75.8519 84.5416 72.0122 89.4974C68.1724 94.4532 62.8457 98.0483 56.8133 99.7554C50.7809 101.463 44.3602 101.192 38.4929 98.9832L40.334 110.548L90.245 102.602L82.3724 53.1515L72.8261 54.6713Z" fill="#C292C2"/>
</g>
<path d="M41.2674 62.7948L36.1771 63.6052L36.9466 68.4391L42.037 67.6287L41.2674 62.7948Z" fill="white" stroke="#662483" stroke-width="2.43262" stroke-linecap="round" stroke-linejoin="round"/>
<path d="M42.4957 70.5106L37.4054 71.321L38.1749 76.1549L43.2653 75.3445L42.4957 70.5106Z" fill="white" stroke="#662483" stroke-width="2.43262" stroke-linecap="round" stroke-linejoin="round"/>
<path d="M43.7238 78.2245L38.6334 79.0349L39.403 83.8688L44.4933 83.0584L43.7238 78.2245Z" fill="white" stroke="#662483" stroke-width="2.43262" stroke-linecap="round" stroke-linejoin="round"/>
<path d="M44.9518 85.9383L39.8615 86.7487L40.631 91.5826L45.7214 90.7722L44.9518 85.9383Z" fill="white" stroke="#662483" stroke-width="2.43262" stroke-linecap="round" stroke-linejoin="round"/>
<path d="M46.1799 93.6522L41.0895 94.4626L41.8591 99.2965L46.9494 98.4861L46.1799 93.6522Z" fill="white" stroke="#662483" stroke-width="2.43262" stroke-linecap="round" stroke-linejoin="round"/>
<path d="M47.4079 101.366L42.3176 102.176L43.0871 107.01L48.1775 106.2L47.4079 101.366Z" fill="white" stroke="#662483" stroke-width="2.43262" stroke-linecap="round" stroke-linejoin="round"/>
<path d="M79.1553 56.7631L74.063 57.5738L74.8325 62.4077L79.9249 61.597L79.1553 56.7631Z" fill="white" stroke="#662483" stroke-width="2.43262" stroke-linecap="round" stroke-linejoin="round"/>
<path d="M80.3836 64.4789L75.2913 65.2896L76.0609 70.1235L81.1532 69.3128L80.3836 64.4789Z" fill="white" stroke="#662483" stroke-width="2.43262" stroke-linecap="round" stroke-linejoin="round"/>
<path d="M81.6117 72.1928L76.5193 73.0035L77.2889 77.8374L82.3812 77.0267L81.6117 72.1928Z" fill="white" stroke="#662483" stroke-width="2.43262" stroke-linecap="round" stroke-linejoin="round"/>
<path d="M82.8397 79.9066L77.7474 80.7173L78.517 85.5512L83.6093 84.7405L82.8397 79.9066Z" fill="white" stroke="#662483" stroke-width="2.43262" stroke-linecap="round" stroke-linejoin="round"/>
<path d="M84.0678 87.6205L78.9755 88.4312L79.745 93.265L84.8373 92.4543L84.0678 87.6205Z" fill="white" stroke="#662483" stroke-width="2.43262" stroke-linecap="round" stroke-linejoin="round"/>
<path d="M85.2958 95.3343L80.2035 96.145L80.973 100.979L86.0654 100.168L85.2958 95.3343Z" fill="white" stroke="#662483" stroke-width="2.43262" stroke-linecap="round" stroke-linejoin="round"/>
<path d="M52.6183 83.2404L50.8143 71.9084L61.5309 76.0119L72.2455 80.1157L63.3349 87.3438L54.4227 94.5742L52.6183 83.2404Z" fill="#93D5F6" stroke="#662483" stroke-width="2.43262" stroke-linecap="round" stroke-linejoin="round"/>
</g>
<defs>
<clipPath id="clip0_954_2601">
<rect width="120" height="120" fill="white"/>
</clipPath>
</defs>
</svg>
